<?xml version='1.0' encoding='utf-8'?>
<!DOCTYPE svg PUBLIC '-//W3C//DTD SVG 1.1//EN' 'http://www.w3.org/Graphics/SVG/1.1/DTD/svg11.dtd'>
<svg width="30" version="1.1" xmlns="http://www.w3.org/2000/svg" height="30" viewBox="0 0 30 30" xmlns:xlink="http://www.w3.org/1999/xlink" enable-background="new 0 0 30 30">
  <path fill-rule="evenodd" d="m29.02,30h-28l3-24h4.099c0.489-3.388 3.378-6 6.901-6s6.409,2.612 6.898,6h4.102l3,24zm-14-28c-2.417,0-4.412,1.721-4.878,4h9.757c-0.467-2.279-2.463-4-4.879-4zm-9.417,6l-2.583,20h24l-2.5-20h-18.917zm13.917,5c-0.828,0-1.5-0.672-1.5-1.501 0-0.828 0.672-1.499 1.5-1.499s1.5,0.671 1.5,1.499c0,0.83-0.672,1.501-1.5,1.501zm-9,0c-0.829,0-1.5-0.672-1.5-1.501 0-0.828 0.671-1.499 1.5-1.499s1.5,0.671 1.5,1.499c0,0.83-0.672,1.501-1.5,1.501z"/>
</svg>
